%TF.GenerationSoftware,KiCad,Pcbnew,7.0.10*%
%TF.CreationDate,2024-06-18T13:30:52+03:00*%
%TF.ProjectId,driver-bridge-side,64726976-6572-42d6-9272-696467652d73,rev?*%
%TF.SameCoordinates,Original*%
%TF.FileFunction,Paste,Top*%
%TF.FilePolarity,Positive*%
%FSLAX46Y46*%
G04 Gerber Fmt 4.6, Leading zero omitted, Abs format (unit mm)*
G04 Created by KiCad (PCBNEW 7.0.10) date 2024-06-18 13:30:52*
%MOMM*%
%LPD*%
G01*
G04 APERTURE LIST*
G04 Aperture macros list*
%AMRoundRect*
0 Rectangle with rounded corners*
0 $1 Rounding radius*
0 $2 $3 $4 $5 $6 $7 $8 $9 X,Y pos of 4 corners*
0 Add a 4 corners polygon primitive as box body*
4,1,4,$2,$3,$4,$5,$6,$7,$8,$9,$2,$3,0*
0 Add four circle primitives for the rounded corners*
1,1,$1+$1,$2,$3*
1,1,$1+$1,$4,$5*
1,1,$1+$1,$6,$7*
1,1,$1+$1,$8,$9*
0 Add four rect primitives between the rounded corners*
20,1,$1+$1,$2,$3,$4,$5,0*
20,1,$1+$1,$4,$5,$6,$7,0*
20,1,$1+$1,$6,$7,$8,$9,0*
20,1,$1+$1,$8,$9,$2,$3,0*%
G04 Aperture macros list end*
%ADD10RoundRect,0.250000X-0.350000X-0.450000X0.350000X-0.450000X0.350000X0.450000X-0.350000X0.450000X0*%
%ADD11RoundRect,0.250000X-0.337500X-0.475000X0.337500X-0.475000X0.337500X0.475000X-0.337500X0.475000X0*%
%ADD12R,1.800000X1.000000*%
%ADD13RoundRect,0.250000X-0.450000X0.325000X-0.450000X-0.325000X0.450000X-0.325000X0.450000X0.325000X0*%
%ADD14RoundRect,0.250000X0.450000X-0.325000X0.450000X0.325000X-0.450000X0.325000X-0.450000X-0.325000X0*%
%ADD15RoundRect,0.250000X0.350000X0.450000X-0.350000X0.450000X-0.350000X-0.450000X0.350000X-0.450000X0*%
%ADD16RoundRect,0.250000X0.337500X0.475000X-0.337500X0.475000X-0.337500X-0.475000X0.337500X-0.475000X0*%
%ADD17RoundRect,0.250000X-0.475000X0.337500X-0.475000X-0.337500X0.475000X-0.337500X0.475000X0.337500X0*%
%ADD18RoundRect,0.250000X0.450000X-0.350000X0.450000X0.350000X-0.450000X0.350000X-0.450000X-0.350000X0*%
%ADD19RoundRect,0.225000X0.375000X-0.225000X0.375000X0.225000X-0.375000X0.225000X-0.375000X-0.225000X0*%
%ADD20RoundRect,0.250001X0.799999X-2.049999X0.799999X2.049999X-0.799999X2.049999X-0.799999X-2.049999X0*%
%ADD21RoundRect,0.225000X0.225000X0.375000X-0.225000X0.375000X-0.225000X-0.375000X0.225000X-0.375000X0*%
%ADD22R,1.200000X1.400000*%
%ADD23RoundRect,0.250001X-2.049999X-0.799999X2.049999X-0.799999X2.049999X0.799999X-2.049999X0.799999X0*%
%ADD24R,2.180000X1.600000*%
%ADD25RoundRect,0.250000X0.300000X-2.050000X0.300000X2.050000X-0.300000X2.050000X-0.300000X-2.050000X0*%
%ADD26RoundRect,0.250000X2.375000X-2.025000X2.375000X2.025000X-2.375000X2.025000X-2.375000X-2.025000X0*%
%ADD27RoundRect,0.249999X0.450001X1.425001X-0.450001X1.425001X-0.450001X-1.425001X0.450001X-1.425001X0*%
%ADD28RoundRect,0.250000X-2.050000X-0.300000X2.050000X-0.300000X2.050000X0.300000X-2.050000X0.300000X0*%
%ADD29RoundRect,0.250000X-2.025000X-2.375000X2.025000X-2.375000X2.025000X2.375000X-2.025000X2.375000X0*%
%ADD30R,3.200000X2.000000*%
%ADD31RoundRect,0.500000X0.500000X0.500000X-0.500000X0.500000X-0.500000X-0.500000X0.500000X-0.500000X0*%
%ADD32RoundRect,0.090000X0.090000X-0.139000X0.090000X0.139000X-0.090000X0.139000X-0.090000X-0.139000X0*%
%ADD33RoundRect,0.075000X-0.700000X-0.075000X0.700000X-0.075000X0.700000X0.075000X-0.700000X0.075000X0*%
%ADD34RoundRect,0.075000X-0.075000X-0.700000X0.075000X-0.700000X0.075000X0.700000X-0.075000X0.700000X0*%
%ADD35RoundRect,0.250000X-0.275000X-0.350000X0.275000X-0.350000X0.275000X0.350000X-0.275000X0.350000X0*%
%ADD36R,1.800000X2.600000*%
%ADD37O,1.800000X2.600000*%
%ADD38R,3.500000X3.550000*%
%ADD39R,3.550000X3.500000*%
G04 APERTURE END LIST*
D10*
%TO.C,R17*%
X25550000Y-49530000D03*
X27550000Y-49530000D03*
%TD*%
D11*
%TO.C,C32*%
X22860472Y-92275691D03*
X24935472Y-92275691D03*
%TD*%
%TO.C,C36*%
X122508100Y-106172000D03*
X124583100Y-106172000D03*
%TD*%
D12*
%TO.C,Y2*%
X21750000Y-56622000D03*
X21750000Y-54122000D03*
%TD*%
D11*
%TO.C,C28*%
X40612500Y-68707000D03*
X42687500Y-68707000D03*
%TD*%
D13*
%TO.C,D3*%
X111506000Y-43335000D03*
X111506000Y-45385000D03*
%TD*%
D10*
%TO.C,R18*%
X27707972Y-92275691D03*
X29707972Y-92275691D03*
%TD*%
D14*
%TO.C,D25*%
X17388877Y-62189333D03*
X17388877Y-60139333D03*
%TD*%
D15*
%TO.C,R19*%
X29707972Y-89735691D03*
X27707972Y-89735691D03*
%TD*%
D16*
%TO.C,C33*%
X24935472Y-89735691D03*
X22860472Y-89735691D03*
%TD*%
D11*
%TO.C,C31*%
X30972500Y-71247000D03*
X33047500Y-71247000D03*
%TD*%
D17*
%TO.C,C4*%
X131064000Y-116056500D03*
X131064000Y-118131500D03*
%TD*%
D10*
%TO.C,R16*%
X30980000Y-73787000D03*
X32980000Y-73787000D03*
%TD*%
D18*
%TO.C,R14*%
X17399000Y-57007000D03*
X17399000Y-55007000D03*
%TD*%
%TO.C,R1*%
X114300000Y-45360000D03*
X114300000Y-43360000D03*
%TD*%
D19*
%TO.C,D1*%
X117348000Y-45465000D03*
X117348000Y-42165000D03*
%TD*%
D10*
%TO.C,R20*%
X122545600Y-113385600D03*
X124545600Y-113385600D03*
%TD*%
D20*
%TO.C,C6*%
X50927000Y-32334000D03*
X50927000Y-23534000D03*
%TD*%
D11*
%TO.C,C2*%
X122484867Y-42286845D03*
X124559867Y-42286845D03*
%TD*%
D21*
%TO.C,D2*%
X24645000Y-37084000D03*
X21345000Y-37084000D03*
%TD*%
D10*
%TO.C,R21*%
X122545600Y-103632000D03*
X124545600Y-103632000D03*
%TD*%
D22*
%TO.C,Y1*%
X23150000Y-62187000D03*
X23150000Y-59987000D03*
X21450000Y-59987000D03*
X21450000Y-62187000D03*
%TD*%
D23*
%TO.C,C5*%
X127000000Y-35200940D03*
X135800000Y-35200940D03*
%TD*%
D24*
%TO.C,SW1*%
X21960000Y-45720000D03*
X31140000Y-45720000D03*
%TD*%
D15*
%TO.C,R22*%
X106150600Y-99530600D03*
X104150600Y-99530600D03*
%TD*%
D25*
%TO.C,U2*%
X34846000Y-35554000D03*
X36546000Y-35554000D03*
X38246000Y-35554000D03*
D26*
X35471000Y-28829000D03*
X41021000Y-28829000D03*
X35471000Y-23979000D03*
X41021000Y-23979000D03*
D25*
X39946000Y-35554000D03*
X41646000Y-35554000D03*
%TD*%
D27*
%TO.C,R7*%
X114529210Y-77162421D03*
X108429210Y-77162421D03*
%TD*%
D28*
%TO.C,U1*%
X124200000Y-46130000D03*
X124200000Y-47830000D03*
X124200000Y-49530000D03*
D29*
X130925000Y-46755000D03*
X130925000Y-52305000D03*
X135775000Y-46755000D03*
X135775000Y-52305000D03*
D28*
X124200000Y-51230000D03*
X124200000Y-52930000D03*
%TD*%
D18*
%TO.C,R2*%
X39364000Y-42650000D03*
X39364000Y-40650000D03*
%TD*%
D13*
%TO.C,D4*%
X42164000Y-40625000D03*
X42164000Y-42675000D03*
%TD*%
D30*
%TO.C,SW2*%
X111865600Y-113905600D03*
X111865600Y-102705600D03*
D31*
X119365600Y-110805600D03*
X119365600Y-105805600D03*
X119365600Y-108305600D03*
X104865600Y-105805600D03*
X104865600Y-110805600D03*
%TD*%
D32*
%TO.C,C22*%
X25400000Y-60299500D03*
X25400000Y-59434500D03*
%TD*%
D33*
%TO.C,U9*%
X31155000Y-55432000D03*
X31155000Y-55932000D03*
X31155000Y-56432000D03*
X31155000Y-56932000D03*
X31155000Y-57432000D03*
X31155000Y-57932000D03*
X31155000Y-58432000D03*
X31155000Y-58932000D03*
X31155000Y-59432000D03*
X31155000Y-59932000D03*
X31155000Y-60432000D03*
X31155000Y-60932000D03*
X31155000Y-61432000D03*
X31155000Y-61932000D03*
X31155000Y-62432000D03*
X31155000Y-62932000D03*
D34*
X33080000Y-64857000D03*
X33580000Y-64857000D03*
X34080000Y-64857000D03*
X34580000Y-64857000D03*
X35080000Y-64857000D03*
X35580000Y-64857000D03*
X36080000Y-64857000D03*
X36580000Y-64857000D03*
X37080000Y-64857000D03*
X37580000Y-64857000D03*
X38080000Y-64857000D03*
X38580000Y-64857000D03*
X39080000Y-64857000D03*
X39580000Y-64857000D03*
X40080000Y-64857000D03*
X40580000Y-64857000D03*
D33*
X42505000Y-62932000D03*
X42505000Y-62432000D03*
X42505000Y-61932000D03*
X42505000Y-61432000D03*
X42505000Y-60932000D03*
X42505000Y-60432000D03*
X42505000Y-59932000D03*
X42505000Y-59432000D03*
X42505000Y-58932000D03*
X42505000Y-58432000D03*
X42505000Y-57932000D03*
X42505000Y-57432000D03*
X42505000Y-56932000D03*
X42505000Y-56432000D03*
X42505000Y-55932000D03*
X42505000Y-55432000D03*
D34*
X40580000Y-53507000D03*
X40080000Y-53507000D03*
X39580000Y-53507000D03*
X39080000Y-53507000D03*
X38580000Y-53507000D03*
X38080000Y-53507000D03*
X37580000Y-53507000D03*
X37080000Y-53507000D03*
X36580000Y-53507000D03*
X36080000Y-53507000D03*
X35580000Y-53507000D03*
X35080000Y-53507000D03*
X34580000Y-53507000D03*
X34080000Y-53507000D03*
X33580000Y-53507000D03*
X33080000Y-53507000D03*
%TD*%
D11*
%TO.C,C35*%
X122508100Y-110845600D03*
X124583100Y-110845600D03*
%TD*%
D35*
%TO.C,L3*%
X21370000Y-66167000D03*
X23670000Y-66167000D03*
%TD*%
D36*
%TO.C,DS1*%
X23025100Y-85525300D03*
D37*
X25565100Y-85525300D03*
X28105100Y-85525300D03*
X30645100Y-85525300D03*
X33185100Y-85525300D03*
X35725100Y-85525300D03*
X38265100Y-85525300D03*
X40805100Y-85525300D03*
X43345100Y-85525300D03*
X45885100Y-85525300D03*
X48425100Y-85525300D03*
X50965100Y-85525300D03*
X53505100Y-85525300D03*
X56045100Y-85525300D03*
X58585100Y-85525300D03*
X61125100Y-85525300D03*
%TD*%
D32*
%TO.C,C25*%
X24000000Y-56924500D03*
X24000000Y-56059500D03*
%TD*%
%TO.C,C23*%
X25400000Y-62739500D03*
X25400000Y-61874500D03*
%TD*%
D16*
%TO.C,C30*%
X33047500Y-68707000D03*
X30972500Y-68707000D03*
%TD*%
D32*
%TO.C,C24*%
X24000000Y-54684500D03*
X24000000Y-53819500D03*
%TD*%
D38*
%TO.C,L2*%
X26035000Y-32409000D03*
X26035000Y-23459000D03*
%TD*%
D39*
%TO.C,L1*%
X108725593Y-35319845D03*
X117675593Y-35319845D03*
%TD*%
D16*
%TO.C,C3*%
X30442500Y-37124000D03*
X28367500Y-37124000D03*
%TD*%
M02*
