%TF.GenerationSoftware,KiCad,Pcbnew,7.0.10*%
%TF.CreationDate,2024-06-18T13:30:52+03:00*%
%TF.ProjectId,driver-bridge-side,64726976-6572-42d6-9272-696467652d73,rev?*%
%TF.SameCoordinates,Original*%
%TF.FileFunction,Soldermask,Bot*%
%TF.FilePolarity,Negative*%
%FSLAX46Y46*%
G04 Gerber Fmt 4.6, Leading zero omitted, Abs format (unit mm)*
G04 Created by KiCad (PCBNEW 7.0.10) date 2024-06-18 13:30:52*
%MOMM*%
%LPD*%
G01*
G04 APERTURE LIST*
G04 Aperture macros list*
%AMRoundRect*
0 Rectangle with rounded corners*
0 $1 Rounding radius*
0 $2 $3 $4 $5 $6 $7 $8 $9 X,Y pos of 4 corners*
0 Add a 4 corners polygon primitive as box body*
4,1,4,$2,$3,$4,$5,$6,$7,$8,$9,$2,$3,0*
0 Add four circle primitives for the rounded corners*
1,1,$1+$1,$2,$3*
1,1,$1+$1,$4,$5*
1,1,$1+$1,$6,$7*
1,1,$1+$1,$8,$9*
0 Add four rect primitives between the rounded corners*
20,1,$1+$1,$2,$3,$4,$5,0*
20,1,$1+$1,$4,$5,$6,$7,0*
20,1,$1+$1,$6,$7,$8,$9,0*
20,1,$1+$1,$8,$9,$2,$3,0*%
%AMFreePoly0*
4,1,19,0.500000,-0.750000,0.000000,-0.750000,0.000000,-0.744911,-0.071157,-0.744911,-0.207708,-0.704816,-0.327430,-0.627875,-0.420627,-0.520320,-0.479746,-0.390866,-0.500000,-0.250000,-0.500000,0.250000,-0.479746,0.390866,-0.420627,0.520320,-0.327430,0.627875,-0.207708,0.704816,-0.071157,0.744911,0.000000,0.744911,0.000000,0.750000,0.500000,0.750000,0.500000,-0.750000,0.500000,-0.750000,
$1*%
%AMFreePoly1*
4,1,19,0.000000,0.744911,0.071157,0.744911,0.207708,0.704816,0.327430,0.627875,0.420627,0.520320,0.479746,0.390866,0.500000,0.250000,0.500000,-0.250000,0.479746,-0.390866,0.420627,-0.520320,0.327430,-0.627875,0.207708,-0.704816,0.071157,-0.744911,0.000000,-0.744911,0.000000,-0.750000,-0.500000,-0.750000,-0.500000,0.750000,0.000000,0.750000,0.000000,0.744911,0.000000,0.744911,
$1*%
G04 Aperture macros list end*
%ADD10FreePoly0,90.000000*%
%ADD11FreePoly1,90.000000*%
%ADD12C,0.800000*%
%ADD13C,7.000000*%
%ADD14C,7.400000*%
%ADD15R,1.700000X1.700000*%
%ADD16O,1.700000X1.700000*%
%ADD17RoundRect,0.250000X-1.400000X-1.000000X1.400000X-1.000000X1.400000X1.000000X-1.400000X1.000000X0*%
%ADD18RoundRect,0.250000X-1.000000X1.400000X-1.000000X-1.400000X1.000000X-1.400000X1.000000X1.400000X0*%
%ADD19RoundRect,0.250000X-0.400000X-0.600000X0.400000X-0.600000X0.400000X0.600000X-0.400000X0.600000X0*%
%ADD20RoundRect,0.250000X-0.337500X-0.475000X0.337500X-0.475000X0.337500X0.475000X-0.337500X0.475000X0*%
%ADD21R,2.000000X1.500000*%
%ADD22R,2.000000X3.800000*%
%ADD23RoundRect,0.250000X0.475000X-0.337500X0.475000X0.337500X-0.475000X0.337500X-0.475000X-0.337500X0*%
%ADD24RoundRect,0.250000X-0.350000X-0.450000X0.350000X-0.450000X0.350000X0.450000X-0.350000X0.450000X0*%
%ADD25R,2.600000X2.600000*%
%ADD26C,2.600000*%
%ADD27RoundRect,0.250000X0.850000X0.350000X-0.850000X0.350000X-0.850000X-0.350000X0.850000X-0.350000X0*%
%ADD28RoundRect,0.249997X2.950003X2.650003X-2.950003X2.650003X-2.950003X-2.650003X2.950003X-2.650003X0*%
%ADD29RoundRect,0.150000X-0.150000X0.825000X-0.150000X-0.825000X0.150000X-0.825000X0.150000X0.825000X0*%
%ADD30RoundRect,0.250000X0.450000X-0.350000X0.450000X0.350000X-0.450000X0.350000X-0.450000X-0.350000X0*%
%ADD31RoundRect,0.250000X0.350000X0.450000X-0.350000X0.450000X-0.350000X-0.450000X0.350000X-0.450000X0*%
%ADD32R,1.200000X1.200000*%
%ADD33C,1.200000*%
%ADD34RoundRect,0.250000X0.337500X0.475000X-0.337500X0.475000X-0.337500X-0.475000X0.337500X-0.475000X0*%
%ADD35RoundRect,0.250000X-0.850000X-0.350000X0.850000X-0.350000X0.850000X0.350000X-0.850000X0.350000X0*%
%ADD36RoundRect,0.249997X-2.950003X-2.650003X2.950003X-2.650003X2.950003X2.650003X-2.950003X2.650003X0*%
%ADD37R,2.400000X2.400000*%
%ADD38C,2.400000*%
%ADD39RoundRect,0.249999X-1.425001X0.450001X-1.425001X-0.450001X1.425001X-0.450001X1.425001X0.450001X0*%
%ADD40RoundRect,0.250000X0.400000X0.600000X-0.400000X0.600000X-0.400000X-0.600000X0.400000X-0.600000X0*%
%ADD41RoundRect,0.250000X-0.475000X0.337500X-0.475000X-0.337500X0.475000X-0.337500X0.475000X0.337500X0*%
%ADD42RoundRect,0.150000X0.150000X-0.825000X0.150000X0.825000X-0.150000X0.825000X-0.150000X-0.825000X0*%
%ADD43RoundRect,0.250000X1.400000X1.000000X-1.400000X1.000000X-1.400000X-1.000000X1.400000X-1.000000X0*%
%ADD44RoundRect,0.250000X1.000000X-1.400000X1.000000X1.400000X-1.000000X1.400000X-1.000000X-1.400000X0*%
%ADD45C,1.500000*%
%ADD46R,1.560000X0.650000*%
%ADD47RoundRect,0.150000X-0.150000X0.587500X-0.150000X-0.587500X0.150000X-0.587500X0.150000X0.587500X0*%
%ADD48RoundRect,0.250000X-0.450000X0.350000X-0.450000X-0.350000X0.450000X-0.350000X0.450000X0.350000X0*%
%ADD49RoundRect,0.250000X-0.450000X0.325000X-0.450000X-0.325000X0.450000X-0.325000X0.450000X0.325000X0*%
G04 APERTURE END LIST*
D10*
%TO.C,JP-S1*%
X69088000Y-31638000D03*
D11*
X69088000Y-30338000D03*
%TD*%
D12*
%TO.C,*%
X86212764Y-59398144D03*
%TD*%
%TO.C,*%
X96520000Y-94996000D03*
%TD*%
%TO.C,*%
X98074703Y-79246604D03*
%TD*%
%TO.C,*%
X97038467Y-80314939D03*
%TD*%
%TO.C,*%
X95970829Y-79270155D03*
%TD*%
D13*
%TO.C,H5*%
X17526000Y-85525300D03*
%TD*%
D12*
%TO.C,V*%
X90022763Y-90766097D03*
%TD*%
%TO.C,H2*%
X14751000Y-17526000D03*
X15563779Y-15563779D03*
X15563779Y-19488221D03*
X17526000Y-14751000D03*
D14*
X17526000Y-17526000D03*
D12*
X17526000Y-20301000D03*
X19488221Y-15563779D03*
X19488221Y-19488221D03*
X20301000Y-17526000D03*
%TD*%
D13*
%TO.C,H6*%
X92710000Y-116332000D03*
%TD*%
D12*
%TO.C,V*%
X91090401Y-91810881D03*
%TD*%
%TO.C,H4*%
X133496000Y-116332000D03*
X134308779Y-114369779D03*
X134308779Y-118294221D03*
X136271000Y-113557000D03*
D14*
X136271000Y-116332000D03*
D12*
X136271000Y-119107000D03*
X138233221Y-114369779D03*
X138233221Y-118294221D03*
X139046000Y-116332000D03*
%TD*%
%TO.C,*%
X62253027Y-71341115D03*
%TD*%
%TO.C,V*%
X91079934Y-89727942D03*
%TD*%
%TO.C,H3*%
X133496000Y-17526000D03*
X134308779Y-15563779D03*
X134308779Y-19488221D03*
X136271000Y-14751000D03*
D14*
X136271000Y-17526000D03*
D12*
X136271000Y-20301000D03*
X138233221Y-15563779D03*
X138233221Y-19488221D03*
X139046000Y-17526000D03*
%TD*%
%TO.C,*%
X109952047Y-73087965D03*
%TD*%
D15*
%TO.C,J7*%
X17399000Y-67574000D03*
D16*
X17399000Y-70114000D03*
X17399000Y-72654000D03*
X17399000Y-75194000D03*
%TD*%
D12*
%TO.C,*%
X97028000Y-78232000D03*
%TD*%
%TO.C,*%
X66540499Y-110449266D03*
%TD*%
%TO.C,*%
X65483328Y-111487421D03*
%TD*%
%TO.C,*%
X107848173Y-73111516D03*
%TD*%
%TO.C,V*%
X92126637Y-90742546D03*
%TD*%
%TO.C,*%
X61206324Y-70326511D03*
%TD*%
%TO.C,*%
X97556236Y-93927665D03*
%TD*%
%TO.C,*%
X87259467Y-60412748D03*
%TD*%
%TO.C,*%
X108915811Y-74156300D03*
%TD*%
%TO.C,*%
X61216791Y-72409450D03*
%TD*%
%TO.C,*%
X85155593Y-60436299D03*
%TD*%
%TO.C,*%
X60149153Y-71364666D03*
%TD*%
%TO.C,*%
X67587202Y-111463870D03*
%TD*%
%TO.C,*%
X66550966Y-112532205D03*
%TD*%
%TO.C,*%
X86223231Y-61481083D03*
%TD*%
%TO.C,*%
X95452362Y-93951216D03*
%TD*%
%TO.C,*%
X96509533Y-92913061D03*
%TD*%
%TO.C,H1*%
X14751000Y-116332000D03*
X15563779Y-114369779D03*
X15563779Y-118294221D03*
X17526000Y-113557000D03*
D14*
X17526000Y-116332000D03*
D12*
X17526000Y-119107000D03*
X19488221Y-114369779D03*
X19488221Y-118294221D03*
X20301000Y-116332000D03*
%TD*%
%TO.C,*%
X108905344Y-72073361D03*
%TD*%
D17*
%TO.C,D12*%
X82931000Y-90776000D03*
X82931000Y-83976000D03*
%TD*%
D18*
%TO.C,D24*%
X130940000Y-69349000D03*
X137740000Y-69349000D03*
%TD*%
D19*
%TO.C,D19*%
X60877000Y-64897000D03*
X64377000Y-64897000D03*
%TD*%
D20*
%TO.C,C21*%
X35157500Y-100874000D03*
X37232500Y-100874000D03*
%TD*%
D21*
%TO.C,U8*%
X32530000Y-95954000D03*
X32530000Y-98254000D03*
D22*
X26230000Y-98254000D03*
D21*
X32530000Y-100554000D03*
%TD*%
D23*
%TO.C,C19*%
X78718867Y-39645500D03*
X78718867Y-37570500D03*
%TD*%
D24*
%TO.C,R4*%
X61641000Y-92241000D03*
X63641000Y-92241000D03*
%TD*%
D25*
%TO.C,J1*%
X85070000Y-22225000D03*
D26*
X90070000Y-22225000D03*
X95070000Y-22225000D03*
X100070000Y-22225000D03*
X105070000Y-22225000D03*
X110070000Y-22225000D03*
X115070000Y-22225000D03*
%TD*%
D25*
%TO.C,J2*%
X70126000Y-22174000D03*
D26*
X75206000Y-22174000D03*
%TD*%
D19*
%TO.C,D7*%
X60891000Y-99226000D03*
X64391000Y-99226000D03*
%TD*%
D27*
%TO.C,Q8*%
X117830000Y-64544500D03*
D28*
X111530000Y-66824500D03*
D27*
X117830000Y-69104500D03*
%TD*%
D29*
%TO.C,U4*%
X127992304Y-92587759D03*
X129262304Y-92587759D03*
X130532304Y-92587759D03*
X131802304Y-92587759D03*
X131802304Y-97537759D03*
X130532304Y-97537759D03*
X129262304Y-97537759D03*
X127992304Y-97537759D03*
%TD*%
D18*
%TO.C,D6*%
X130331000Y-104221500D03*
X137131000Y-104221500D03*
%TD*%
D30*
%TO.C,R15*%
X25930000Y-105509000D03*
X25930000Y-103509000D03*
%TD*%
D23*
%TO.C,C34*%
X21844000Y-48304000D03*
X21844000Y-46229000D03*
%TD*%
D24*
%TO.C,R8*%
X61627000Y-61722000D03*
X63627000Y-61722000D03*
%TD*%
D31*
%TO.C,R5*%
X124547304Y-92522759D03*
X122547304Y-92522759D03*
%TD*%
D32*
%TO.C,C13*%
X49276000Y-60721529D03*
D33*
X49276000Y-58721529D03*
%TD*%
D34*
%TO.C,C29*%
X23310367Y-98495421D03*
X21235367Y-98495421D03*
%TD*%
%TO.C,C7*%
X56508500Y-99655291D03*
X54433500Y-99655291D03*
%TD*%
D31*
%TO.C,R11*%
X125178804Y-61729000D03*
X123178804Y-61729000D03*
%TD*%
D35*
%TO.C,Q6*%
X68987000Y-55134500D03*
D36*
X75287000Y-52854500D03*
D35*
X68987000Y-50574500D03*
%TD*%
D37*
%TO.C,C1*%
X49394728Y-23114000D03*
D38*
X41894728Y-23114000D03*
%TD*%
D39*
%TO.C,R12*%
X69088000Y-35558000D03*
X69088000Y-41658000D03*
%TD*%
D17*
%TO.C,D15*%
X82917000Y-70202000D03*
X82917000Y-63402000D03*
%TD*%
D24*
%TO.C,R9*%
X61627000Y-57912000D03*
X63627000Y-57912000D03*
%TD*%
D40*
%TO.C,D9*%
X125297304Y-89347759D03*
X121797304Y-89347759D03*
%TD*%
D20*
%TO.C,C10*%
X129518500Y-86868000D03*
X131593500Y-86868000D03*
%TD*%
D41*
%TO.C,C20*%
X81280000Y-37570500D03*
X81280000Y-39645500D03*
%TD*%
D42*
%TO.C,U3*%
X58196000Y-96621000D03*
X56926000Y-96621000D03*
X55656000Y-96621000D03*
X54386000Y-96621000D03*
X54386000Y-91671000D03*
X55656000Y-91671000D03*
X56926000Y-91671000D03*
X58196000Y-91671000D03*
%TD*%
D40*
%TO.C,D22*%
X125906304Y-64904000D03*
X122406304Y-64904000D03*
%TD*%
D34*
%TO.C,C16*%
X56464500Y-68072000D03*
X54389500Y-68072000D03*
%TD*%
D20*
%TO.C,C26*%
X35157500Y-98552000D03*
X37232500Y-98552000D03*
%TD*%
D40*
%TO.C,D10*%
X125297304Y-99507759D03*
X121797304Y-99507759D03*
%TD*%
D43*
%TO.C,D14*%
X103251000Y-97991000D03*
X103251000Y-104791000D03*
%TD*%
D44*
%TO.C,D5*%
X55911000Y-85256000D03*
X49111000Y-85256000D03*
%TD*%
D27*
%TO.C,Q7*%
X117780000Y-50574500D03*
D28*
X111480000Y-52854500D03*
D27*
X117780000Y-55134500D03*
%TD*%
D17*
%TO.C,D11*%
X82931000Y-104746000D03*
X82931000Y-97946000D03*
%TD*%
D45*
%TO.C,J5*%
X76038120Y-29981662D03*
%TD*%
D29*
%TO.C,U6*%
X128601304Y-57349000D03*
X129871304Y-57349000D03*
X131141304Y-57349000D03*
X132411304Y-57349000D03*
X132411304Y-62299000D03*
X131141304Y-62299000D03*
X129871304Y-62299000D03*
X128601304Y-62299000D03*
%TD*%
D20*
%TO.C,C17*%
X130127500Y-53474000D03*
X132202500Y-53474000D03*
%TD*%
D32*
%TO.C,C12*%
X137160000Y-94090160D03*
D33*
X137160000Y-96090160D03*
%TD*%
D43*
%TO.C,D13*%
X103251000Y-84021000D03*
X103251000Y-90821000D03*
%TD*%
D31*
%TO.C,R10*%
X125178804Y-57919000D03*
X123178804Y-57919000D03*
%TD*%
D46*
%TO.C,U7*%
X73246867Y-39638000D03*
X73246867Y-38688000D03*
X73246867Y-37738000D03*
X75946867Y-37738000D03*
X75946867Y-39638000D03*
%TD*%
D42*
%TO.C,U5*%
X58159976Y-62223929D03*
X56889976Y-62223929D03*
X55619976Y-62223929D03*
X54349976Y-62223929D03*
X54349976Y-57273929D03*
X55619976Y-57273929D03*
X56889976Y-57273929D03*
X58159976Y-57273929D03*
%TD*%
D47*
%TO.C,D27*%
X24959000Y-46329000D03*
X26859000Y-46329000D03*
X25909000Y-48204000D03*
%TD*%
D35*
%TO.C,Q2*%
X69001000Y-89701000D03*
D36*
X75301000Y-87421000D03*
D35*
X69001000Y-85141000D03*
%TD*%
D27*
%TO.C,Q3*%
X117830000Y-85141000D03*
D28*
X111530000Y-87421000D03*
D27*
X117830000Y-89701000D03*
%TD*%
D20*
%TO.C,C9*%
X129518500Y-89408000D03*
X131593500Y-89408000D03*
%TD*%
D35*
%TO.C,Q5*%
X68987000Y-69104500D03*
D36*
X75287000Y-66824500D03*
D35*
X68987000Y-64544500D03*
%TD*%
D40*
%TO.C,D21*%
X125906304Y-54744000D03*
X122406304Y-54744000D03*
%TD*%
D27*
%TO.C,Q4*%
X117830000Y-99088500D03*
D28*
X111530000Y-101368500D03*
D27*
X117830000Y-103648500D03*
%TD*%
D35*
%TO.C,Q1*%
X69001000Y-103648500D03*
D36*
X75301000Y-101368500D03*
D35*
X69001000Y-99088500D03*
%TD*%
D32*
%TO.C,C11*%
X49276000Y-95118600D03*
D33*
X49276000Y-93118600D03*
%TD*%
D20*
%TO.C,C18*%
X130127500Y-50927000D03*
X132202500Y-50927000D03*
%TD*%
D24*
%TO.C,R3*%
X61641000Y-96051000D03*
X63641000Y-96051000D03*
%TD*%
D17*
%TO.C,D16*%
X82947000Y-56232000D03*
X82947000Y-49432000D03*
%TD*%
D43*
%TO.C,D18*%
X103251000Y-63447000D03*
X103251000Y-70247000D03*
%TD*%
D48*
%TO.C,R13*%
X76026867Y-32528000D03*
X76026867Y-34528000D03*
%TD*%
D19*
%TO.C,D20*%
X60877000Y-54737000D03*
X64377000Y-54737000D03*
%TD*%
D34*
%TO.C,C8*%
X56508500Y-102108000D03*
X54433500Y-102108000D03*
%TD*%
D43*
%TO.C,D17*%
X103251000Y-49477000D03*
X103251000Y-56277000D03*
%TD*%
D19*
%TO.C,D8*%
X60891000Y-89066000D03*
X64391000Y-89066000D03*
%TD*%
D34*
%TO.C,C15*%
X56464500Y-65532000D03*
X54389500Y-65532000D03*
%TD*%
D31*
%TO.C,R6*%
X124569804Y-96332759D03*
X122569804Y-96332759D03*
%TD*%
D49*
%TO.C,D26*%
X32785000Y-103529000D03*
X32785000Y-105579000D03*
%TD*%
D34*
%TO.C,C27*%
X23381644Y-100871325D03*
X21306644Y-100871325D03*
%TD*%
D32*
%TO.C,C14*%
X137160000Y-58851401D03*
D33*
X137160000Y-60851401D03*
%TD*%
D44*
%TO.C,D23*%
X55867000Y-50292000D03*
X49067000Y-50292000D03*
%TD*%
M02*
