M48
; DRILL file {KiCad 7.0.10} date Tue Jun 18 13:30:56 2024
; FORMAT={-:-/ absolute / inch / decimal}
; #@! TF.CreationDate,2024-06-18T13:30:56+03:00
; #@! TF.GenerationSoftware,Kicad,Pcbnew,7.0.10
; #@! TF.FileFunction,Plated,1,2,PTH
FMAT,2
INCH
; #@! TA.AperFunction,Plated,PTH,ViaDrill
T1C0.0157
; #@! TA.AperFunction,Plated,PTH,ComponentDrill
T2C0.0157
; #@! TA.AperFunction,Plated,PTH,ViaDrill
T3C0.0197
; #@! TA.AperFunction,Plated,PTH,ComponentDrill
T4C0.0197
; #@! TA.AperFunction,Plated,PTH,ComponentDrill
T5C0.0236
; #@! TA.AperFunction,Plated,PTH,ComponentDrill
T6C0.0394
; #@! TA.AperFunction,Plated,PTH,ComponentDrill
T7C0.0512
; #@! TA.AperFunction,Plated,PTH,ComponentDrill
T8C0.1378
; #@! TA.AperFunction,Plated,PTH,ComponentDrill
T9C0.1457
%
G90
G05
T1
X0.9273Y-3.2
X1.0069Y-3.14
X1.025Y-0.8002
X1.12Y-2.55
X1.14Y-1.8278
X1.14Y-1.9
X1.1711Y-2.5506
X1.2Y-4.39
X1.22Y-2.62
X1.34Y-1.88
X1.36Y-2.74
X1.4065Y-3.1473
X1.42Y-1.55
X1.42Y-1.6004
X1.42Y-1.7032
X1.42Y-1.96
X1.42Y-2.74
X1.53Y-2.97
X1.53Y-3.2
X1.55Y-1.92
X1.59Y-2.85
X1.59Y-2.9695
X1.59Y-3.2
X1.59Y-3.53
X1.63Y-2.9692
X1.63Y-3.2
X1.63Y-3.53
X1.67Y-2.0
X1.705Y-3.2
X1.7054Y-2.9702
X1.76Y-3.2
X1.76Y-3.53
X1.76Y-3.96
X1.7604Y-2.9696
X1.7787Y-1.7907
X1.8Y-3.53
X1.8Y-3.96
X1.8024Y-3.2
X1.8411Y-3.0048
X1.88Y-3.2
X1.94Y-2.62
X2.07Y-3.7072
X2.12Y-1.26
X2.14Y-3.53
X2.19Y-2.17
X2.1912Y-3.6091
X2.2Y-3.45
X2.28Y-1.26
X2.29Y-1.98
X2.29Y-2.2
X2.3065Y-3.1998
X2.31Y-3.49
X2.35Y-3.61
X2.3946Y-3.5057
X2.41Y-2.81
X2.62Y-4.39
X2.92Y-4.25
X3.3716Y-4.16
X3.394Y-2.38
X3.5864Y-3.5736
X3.8Y-3.7
X3.82Y-3.12
X4.288Y-2.8795
X4.64Y-3.55
X4.7Y-4.46
X4.74Y-1.3
X4.74Y-1.54
X4.78Y-2.0169
X4.823Y-1.5406
X4.91Y-4.08
X4.99Y-4.23
X5.01Y-2.45
X5.04Y-3.92
X5.04Y-3.98
X5.06Y-2.63
X5.06Y-4.3
X5.063Y-2.547
X5.09Y-1.67
X5.14Y-3.81
X5.1586Y-2.4483
X5.2137Y-2.5464
X5.2146Y-2.6046
X5.24Y-3.92
X5.24Y-4.0
X5.4Y-4.26
T2
X2.3681Y-2.8096
X2.4097Y-2.7688
X2.4101Y-2.8508
X2.4509Y-2.8087
X2.5781Y-4.3893
X2.6197Y-4.3484
X2.6201Y-4.4304
X2.6609Y-4.3883
X3.3526Y-2.3794
X3.3942Y-2.3385
X3.3946Y-2.4205
X3.4354Y-2.3785
X3.5442Y-3.5735
X3.5858Y-3.5326
X3.5862Y-3.6146
X3.627Y-3.5725
X3.758Y-3.6989
X3.7784Y-3.1209
X3.7996Y-3.658
X3.8Y-3.74
X3.82Y-3.08
X3.8204Y-3.162
X3.8408Y-3.6979
X3.8612Y-3.1199
X4.246Y-2.8784
X4.2876Y-2.8375
X4.288Y-2.9195
X4.3288Y-2.8775
T3
X0.62Y-1.06
X0.62Y-1.12
X0.62Y-1.24
X0.62Y-1.3
X0.62Y-1.42
X0.62Y-1.48
X0.62Y-1.6
X0.62Y-1.92
X0.62Y-1.98
X0.62Y-3.2
X0.62Y-3.62
X0.62Y-3.68
X0.62Y-3.98
X0.62Y-4.04
X0.62Y-4.16
X0.62Y-4.22
X0.68Y-1.06
X0.68Y-1.12
X0.68Y-1.24
X0.68Y-1.3
X0.68Y-1.42
X0.68Y-1.48
X0.68Y-1.6
X0.68Y-1.92
X0.68Y-1.98
X0.68Y-3.62
X0.68Y-3.68
X0.68Y-3.98
X0.68Y-4.04
X0.68Y-4.16
X0.68Y-4.22
X0.8Y-3.2
X0.8Y-4.16
X0.8Y-4.22
X0.9Y-2.8
X0.92Y-4.52
X0.92Y-4.58
X0.94Y-2.68
X0.94Y-2.74
X0.9665Y-2.4046
X0.98Y-4.52
X0.98Y-4.58
X1.0Y-2.68
X1.0Y-2.74
X1.0Y-2.88
X1.0Y-2.94
X1.02Y-0.66
X1.02Y-0.72
X1.08Y-0.66
X1.08Y-0.72
X1.08Y-3.2
X1.08Y-3.26
X1.1Y-2.14
X1.1Y-4.52
X1.1Y-4.58
X1.14Y-3.2
X1.14Y-3.26
X1.14Y-4.04
X1.14Y-4.1
X1.2Y-0.66
X1.2Y-0.72
X1.2Y-4.04
X1.2Y-4.1
X1.24Y-2.08
X1.26Y-0.66
X1.26Y-0.72
X1.34Y-4.34
X1.34Y-4.4
X1.36Y-2.2
X1.36Y-2.26
X1.36Y-2.32
X1.36Y-2.38
X1.38Y-0.66
X1.38Y-0.72
X1.4Y-4.1
X1.4Y-4.16
X1.4Y-4.34
X1.4Y-4.4
X1.42Y-1.8
X1.42Y-1.86
X1.42Y-2.2
X1.42Y-2.26
X1.42Y-2.32
X1.42Y-2.38
X1.42Y-2.48
X1.44Y-0.66
X1.44Y-0.72
X1.46Y-3.56
X1.46Y-3.62
X1.46Y-3.74
X1.46Y-3.8
X1.46Y-4.1
X1.46Y-4.16
X1.48Y-1.8
X1.48Y-1.86
X1.48Y-2.2
X1.48Y-2.26
X1.48Y-2.32
X1.48Y-2.38
X1.48Y-2.48
X1.52Y-4.34
X1.52Y-4.4
X1.54Y-2.2
X1.54Y-2.26
X1.54Y-2.32
X1.54Y-2.38
X1.54Y-2.48
X1.58Y-4.34
X1.58Y-4.4
X1.68Y-2.56
X1.68Y-2.62
X1.7Y-3.96
X1.7Y-4.02
X1.7Y-4.14
X1.74Y-2.06
X1.74Y-2.56
X1.74Y-2.62
X1.76Y-1.36
X1.76Y-1.42
X1.76Y-1.6
X1.88Y-1.6
X1.9Y-3.82
X1.9Y-3.92
X1.9Y-3.98
X1.9Y-4.1
X1.9Y-4.16
X1.94Y-2.76
X1.96Y-3.82
X1.96Y-3.92
X1.96Y-3.98
X1.96Y-4.1
X1.96Y-4.16
X2.0Y-2.76
X2.02Y-4.36
X2.02Y-4.42
X2.06Y-2.76
X2.08Y-4.1
X2.08Y-4.16
X2.08Y-4.36
X2.08Y-4.42
X2.12Y-2.76
X2.12Y-2.9
X2.12Y-3.0
X2.12Y-3.06
X2.14Y-4.1
X2.14Y-4.16
X2.16Y-0.66
X2.16Y-0.72
X2.18Y-2.9
X2.18Y-3.0
X2.18Y-3.06
X2.2Y-4.36
X2.2Y-4.42
X2.22Y-1.54
X2.22Y-1.6
X2.26Y-4.36
X2.26Y-4.42
X2.28Y-0.66
X2.28Y-0.72
X2.28Y-0.98
X2.28Y-1.54
X2.28Y-1.6
X2.34Y-0.66
X2.34Y-0.72
X2.34Y-0.98
X2.34Y-1.14
X2.34Y-1.2
X2.38Y-4.1
X2.38Y-4.16
X2.38Y-4.36
X2.38Y-4.42
X2.4Y-1.14
X2.4Y-1.2
X2.44Y-4.1
X2.44Y-4.16
X2.44Y-4.36
X2.44Y-4.42
X2.46Y-0.66
X2.46Y-0.72
X2.52Y-0.66
X2.52Y-0.72
X2.52Y-1.42
X2.52Y-1.64
X2.52Y-1.7
X2.52Y-1.82
X2.52Y-1.88
X2.56Y-2.78
X2.56Y-2.84
X2.58Y-1.42
X2.58Y-1.64
X2.58Y-1.7
X2.58Y-1.82
X2.58Y-1.88
X2.62Y-2.78
X2.62Y-2.84
X2.8Y-3.06
X2.84Y-1.28
X2.84Y-1.34
X2.8533Y-1.9758
X2.8533Y-2.0467
X2.8533Y-2.1175
X2.8533Y-2.1884
X2.8533Y-2.5258
X2.8533Y-2.5967
X2.8533Y-2.6675
X2.8533Y-2.7384
X2.8533Y-3.3358
X2.8533Y-3.4067
X2.8533Y-3.4775
X2.8533Y-3.5484
X2.8533Y-3.8858
X2.8533Y-3.9567
X2.8533Y-4.0275
X2.8533Y-4.0984
X2.86Y-3.06
X2.9Y-1.28
X2.9Y-1.34
X2.9241Y-1.9758
X2.9241Y-2.0467
X2.9241Y-2.1175
X2.9241Y-2.1884
X2.9241Y-2.5258
X2.9241Y-2.5967
X2.9241Y-2.6675
X2.9241Y-2.7384
X2.9241Y-3.3358
X2.9241Y-3.4067
X2.9241Y-3.4775
X2.9241Y-3.5484
X2.9241Y-3.8858
X2.9241Y-3.9567
X2.9241Y-4.0275
X2.9241Y-4.0984
X2.98Y-3.06
X2.995Y-1.9758
X2.995Y-2.0467
X2.995Y-2.1175
X2.995Y-2.1884
X2.995Y-2.5258
X2.995Y-2.5967
X2.995Y-2.6675
X2.995Y-2.7384
X2.995Y-3.3358
X2.995Y-3.4067
X2.995Y-3.4775
X2.995Y-3.5484
X2.995Y-3.8858
X2.995Y-3.9567
X2.995Y-4.0275
X2.995Y-4.0984
X3.04Y-3.06
X3.0659Y-1.9758
X3.0659Y-2.0467
X3.0659Y-2.1175
X3.0659Y-2.1884
X3.0659Y-2.5258
X3.0659Y-2.5967
X3.0659Y-2.6675
X3.0659Y-2.7384
X3.0659Y-3.3358
X3.0659Y-3.4067
X3.0659Y-3.4775
X3.0659Y-3.5484
X3.0659Y-3.8858
X3.0659Y-3.9567
X3.0659Y-4.0275
X3.0659Y-4.0984
X3.08Y-1.18
X3.08Y-1.24
X3.1Y-0.9
X3.1Y-0.96
X3.14Y-1.18
X3.14Y-1.24
X3.24Y-4.66
X3.3Y-4.66
X3.36Y-4.66
X3.42Y-4.66
X3.46Y-3.06
X3.54Y-3.74
X3.54Y-3.8
X3.62Y-3.74
X3.62Y-3.8
X3.62Y-4.16
X3.62Y-4.22
X3.68Y-4.16
X3.68Y-4.22
X3.86Y-4.6
X3.86Y-4.66
X3.92Y-4.6
X3.92Y-4.66
X3.94Y-3.0
X3.94Y-3.06
X3.94Y-3.74
X3.96Y-2.32
X3.96Y-2.38
X4.02Y-1.38
X4.02Y-1.44
X4.18Y-1.84
X4.2Y-3.2
X4.26Y-3.2
X4.2883Y-1.9758
X4.2883Y-2.0467
X4.2883Y-2.1175
X4.2883Y-2.1884
X4.2883Y-2.5258
X4.2883Y-2.5967
X4.2883Y-2.6675
X4.2883Y-2.7384
X4.2883Y-3.3358
X4.2883Y-3.4067
X4.2883Y-3.4775
X4.2883Y-3.5484
X4.3591Y-1.9758
X4.3591Y-2.0467
X4.3591Y-2.1175
X4.3591Y-2.1884
X4.3591Y-2.5258
X4.3591Y-2.5967
X4.3591Y-2.6675
X4.3591Y-2.7384
X4.3591Y-3.3358
X4.3591Y-3.4067
X4.3591Y-3.4775
X4.3591Y-3.5484
X4.38Y-3.2
X4.43Y-1.9758
X4.43Y-2.0467
X4.43Y-2.1175
X4.43Y-2.1884
X4.43Y-2.5258
X4.43Y-2.5967
X4.43Y-2.6675
X4.43Y-2.7384
X4.43Y-3.3358
X4.43Y-3.4067
X4.43Y-3.4775
X4.43Y-3.5484
X4.44Y-3.2
X4.5009Y-1.9758
X4.5009Y-2.0467
X4.5009Y-2.1175
X4.5009Y-2.1884
X4.5009Y-2.5258
X4.5009Y-2.5967
X4.5009Y-2.6675
X4.5009Y-2.7384
X4.5009Y-3.3358
X4.5009Y-3.4067
X4.5009Y-3.4775
X4.5009Y-3.5484
X4.56Y-3.2
X4.62Y-3.2
X4.68Y-3.74
X4.68Y-3.8
X4.72Y-0.66
X4.72Y-0.72
X4.72Y-0.9
X4.72Y-0.96
X4.74Y-2.14
X4.74Y-2.2
X4.78Y-0.66
X4.78Y-0.72
X4.78Y-0.9
X4.78Y-0.96
X4.86Y-2.8
X4.86Y-2.86
X4.86Y-3.0
X4.86Y-3.06
X4.86Y-3.2
X4.86Y-3.26
X4.9Y-0.66
X4.9Y-0.72
X4.9Y-0.9
X4.9Y-0.96
X4.9Y-1.28
X4.9048Y-1.54
X4.9048Y-1.6
X4.92Y-2.8
X4.92Y-2.86
X4.92Y-3.0
X4.92Y-3.06
X4.92Y-3.2
X4.92Y-3.26
X4.96Y-0.66
X4.96Y-0.72
X4.96Y-0.9
X4.96Y-0.96
X5.0Y-4.58
X5.0Y-4.64
X5.06Y-4.58
X5.06Y-4.64
X5.08Y-0.66
X5.08Y-0.72
X5.08Y-0.9
X5.08Y-0.96
X5.14Y-0.66
X5.14Y-0.72
X5.14Y-0.9
X5.14Y-0.96
X5.1574Y-1.6718
X5.22Y-3.2
X5.22Y-3.26
X5.2724Y-1.6718
X5.28Y-3.2
X5.28Y-3.26
X5.3324Y-1.6718
X5.34Y-3.44
X5.34Y-3.5
X5.34Y-3.62
X5.4Y-3.0
X5.4Y-3.06
X5.4Y-3.44
X5.4Y-3.5
X5.4Y-3.62
X5.44Y-1.48
X5.44Y-1.54
X5.44Y-1.6
X5.46Y-3.0
X5.46Y-3.06
T4
X0.5807Y-0.69
X0.5807Y-4.58
X0.6127Y-0.6127
X0.6127Y-0.7673
X0.6127Y-4.5027
X0.6127Y-4.6573
X0.69Y-0.5807
X0.69Y-0.7993
X0.69Y-4.4707
X0.69Y-4.6893
X0.7673Y-0.6127
X0.7673Y-0.7673
X0.7673Y-4.5027
X0.7673Y-4.6573
X0.7993Y-0.69
X0.7993Y-4.58
X5.2557Y-0.69
X5.2557Y-4.58
X5.2877Y-0.6127
X5.2877Y-0.7673
X5.2877Y-4.5027
X5.2877Y-4.6573
X5.365Y-0.5807
X5.365Y-0.7993
X5.365Y-4.4707
X5.365Y-4.6893
X5.4423Y-0.6127
X5.4423Y-0.7673
X5.4423Y-4.5027
X5.4423Y-4.6573
X5.4743Y-0.69
X5.4743Y-4.58
T5
X1.94Y-2.3119
X1.94Y-2.3906
X1.94Y-3.6661
X1.94Y-3.7448
X5.4Y-2.317
X5.4Y-2.3957
X5.4Y-3.7043
X5.4Y-3.7831
T6
X0.685Y-2.6604
X0.685Y-2.7604
X0.685Y-2.8604
X0.685Y-2.9604
T7
X2.7609Y-0.873
X2.9609Y-0.873
X3.3492Y-0.875
X3.5461Y-0.875
X3.7429Y-0.875
X3.9398Y-0.875
X4.1366Y-0.875
X4.3335Y-0.875
X4.5303Y-0.875
T8
X0.69Y-3.3671
X3.65Y-4.58
T9
X0.69Y-0.69
X0.69Y-4.58
X5.365Y-0.69
X5.365Y-4.58
M30
